<svg width="56" height="56" viewBox="0 0 56 56" fill="none" xmlns="http://www.w3.org/2000/svg">
<path d="M27.4182 18.9091C27.2 16.1455 26.6182 13.2364 25.7455 10.1818C24.8727 7.05455 24.3636 5.09091 24.3636 4.07273C24.3636 1.52727 25.7455 0 28 0C30.2546 0 31.6364 1.52727 31.6364 4.07273C31.6364 5.09091 31.0546 7.27273 30.1091 10.6909C29.1636 14.1091 28.5818 16.8727 28.4364 18.9091H27.4182ZM34.7636 21.8909L34.0364 21.1636C35.0546 20 37.3091 16.9455 38.0364 15.4909L39.4909 12.7273C41.4546 8.94546 43.4182 7.05455 45.3091 7.05455C47.0546 7.05455 48.9455 9.09091 48.9455 10.9091C48.9455 12.5818 46.9818 14.4727 43.0546 16.5818C39.0546 18.6909 36.2909 20.5091 34.7636 21.8909ZM21.1636 21.7455C20 20.8 18.1818 19.3455 15.4182 17.8909L12.7273 16.4364C8.94546 14.4 7.05455 12.5091 7.05455 10.6182C7.05455 9.01818 9.01818 7.05455 10.6909 7.05455C12.4364 7.05455 14.3273 8.87273 16.2909 12.5818C18.2546 16.2182 20.1455 19.0546 21.8909 21.0909L21.1636 21.7455ZM28.0727 35.2C24.0727 35.2 20.8 32.0727 20.8 28.0727C20.8 24.0727 24.0727 20.8 28.0727 20.8C32.0727 20.8 35.2 24.0727 35.2 28.0727C35.2 32.0727 32.0727 35.2 28.0727 35.2ZM3.92727 31.6364C1.45455 31.6364 0 30.3273 0 28C0 25.7455 1.38182 24.3636 3.92727 24.3636C4.94546 24.3636 6.54546 24.6546 8.72727 25.3091C13.1636 26.6182 16.8 27.2727 18.7636 27.4182V28.4364C16.7273 28.5818 13.9636 29.0909 10.5455 30.1091C7.12727 31.1273 4.94546 31.6364 3.92727 31.6364ZM51.9273 31.6364C50.9091 31.6364 48.7273 31.0546 45.3091 30.1091C41.8182 29.1636 39.1273 28.5818 37.0909 28.4364V27.4182C39.8546 27.2 42.7637 26.6909 45.7455 25.7455C48.8 24.8 50.8364 24.3636 51.9273 24.3636C54.4727 24.3636 56 25.7455 56 28C56 30.3273 54.4727 31.6364 51.9273 31.6364ZM45.3091 48.9455C43.4182 48.9455 41.5273 46.9818 39.4909 43.2L38.0364 40.5091C36.5091 37.6727 35.0546 35.8546 34.1091 34.7636L34.8364 34.0364C35.7091 34.8364 39.0546 37.2364 40.5091 38.0364L43.2 39.4909C47.0546 41.6 48.9455 43.4182 48.9455 45.2364C48.9455 46.9818 46.8364 48.9455 45.3091 48.9455ZM10.6909 48.9455C9.01818 48.9455 7.05455 47.0546 7.05455 45.3818C7.05455 43.4909 8.94546 41.6 12.7273 39.5636L15.4182 38.1091C16.8727 37.3091 18.7636 36 21.0909 34.1091L21.7455 34.8364C20.8 35.8546 18.6182 39.2 17.8909 40.5818L16.4364 43.3455C14.4727 47.0546 12.5091 48.9455 10.6909 48.9455ZM28 56C25.7455 56 24.3636 54.6182 24.3636 52.0727C24.3636 51.1273 24.8727 49.0909 25.7455 45.8909C26.6182 42.7637 27.2 39.8546 27.4182 37.2364H28.4364C28.5818 39.2727 29.0909 41.9637 30.1091 45.4546C31.1273 48.8727 31.6364 51.0546 31.6364 52.0727C31.6364 54.5455 30.2546 56 28 56Z" fill="#A3A3A3"/>
</svg>
