<svg width="22" height="22" viewBox="0 0 22 22" fill="none" xmlns="http://www.w3.org/2000/svg">
<path d="M16.4254 13.1268C16.188 13.3569 16.0789 13.6897 16.133 14.016L16.9479 18.526C17.0166 18.9083 16.8553 19.2951 16.5354 19.516C16.2219 19.7452 15.8048 19.7727 15.4629 19.5893L11.403 17.4718C11.2618 17.3967 11.105 17.3563 10.9446 17.3518H10.6962C10.61 17.3646 10.5257 17.3921 10.4487 17.4343L6.38787 19.5618C6.18712 19.6627 5.95978 19.6984 5.73703 19.6627C5.19437 19.56 4.83228 19.043 4.9212 18.4976L5.73703 13.9876C5.79112 13.6585 5.68203 13.3239 5.44462 13.0902L2.13453 9.88184C1.8577 9.61325 1.76145 9.20992 1.88795 8.846C2.01078 8.483 2.32428 8.21809 2.70286 8.1585L7.2587 7.49759C7.6052 7.46183 7.90954 7.251 8.06537 6.93933L10.0729 2.8235C10.1205 2.73183 10.182 2.6475 10.2562 2.576L10.3387 2.51183C10.3818 2.46416 10.4313 2.42475 10.4863 2.39266L10.5862 2.356L10.742 2.29183H11.128C11.4726 2.32758 11.776 2.53383 11.9346 2.84183L13.9687 6.93933C14.1154 7.23909 14.4005 7.44717 14.7295 7.49759L19.2854 8.1585C19.6704 8.2135 19.9921 8.47934 20.1195 8.846C20.2396 9.21359 20.136 9.61692 19.8537 9.88184L16.4254 13.1268Z" fill="#EAB308"/>
</svg>
